<svg xmlns="http://www.w3.org/2000/svg" viewBox="0 0 750 500">
    <g id="freepik--background-complete--inject-2">
        <g>
            <path
                d="M691.59378,150.4582l5.887-9.4906-2.9066-1.8005c-.8548-.5296-1.3181-1.4962-1.2324-2.498,.0475-.5537,.06522-1.1111,.0528-1.6696-.0218-1.0027,.502-1.9358,1.3857-2.4097l3.0128-1.6157-5.2803-9.8455-3.0124,1.6156c-.8838,.474-1.951,.3941-2.7739-.1788-.4586-.3192-.9327-.6129-1.4201-.8796-.882-.4828-1.4308-1.4037-1.399-2.4085l.1082-3.4177-11.1628-.3468-.1034,3.4298c-.0303,1.0058-.6466,1.8809-1.5565,2.3106-.2471,.1165-.49188,.2401-.7345,.3701-.2425,.1301-.4809,.2657-.71438,.407-.85722,.5177-1.92172,.5479-2.773,.0205l-2.92772-1.8136-5.8869,9.4906,2.9119,1.8073c.8545,.5305,1.3171,1.4981,1.23,2.5-.0479,.5515-.0662,1.1066-.0547,1.6629,.0208,1.0015-.5028,1.9336-1.38558,2.407l-3.01372,1.6162,5.28,9.8454,3.01372-1.6161c.88258-.4735,1.94888-.3939,2.77158,.1775,.457,.3174,.9296,.6092,1.4156,.8743,.8827,.482,1.43282,1.4026,1.4019,2.4079l-.1055,3.4255,11.1627,.347,.1065-3.4272c.0311-1.0024,.6457-1.8741,1.5525-2.3025,.248-.1172,.49472-.2416,.7398-.3731,.2425-.1299,.48092-.2657,.7148-.407,.8615-.5204,1.9314-.5501,2.7867-.0194l2.9092,1.8047Zm-9.4515-7.0483c-4.4521,2.3877-9.9922,.7155-12.3798-3.7366-2.3877-4.4522-.7199-10.0001,3.73252-12.3878,4.45218-2.3877,10.00418-.7119,12.39188,3.7403,2.3877,4.4523,.7076,9.9964-3.7446,12.3841Z"
                style="fill:#ebebeb;"></path>
            <path
                d="M118.1452,203.2345l-3.9101-6.7767-2.0739,1.1982c-.61,.3525-1.3602,.3186-1.9503-.0661-.3261-.2128-.6643-.4081-1.0133-.5855-.6261-.3183-1.0289-.9507-1.0289-1.6532v-2.3951h-7.8265v2.3951c0,.7025-.4028,1.3349-1.0288,1.6532-.3491,.1774-.6872,.3727-1.0134,.5855-.5898,.3845-1.3401,.4186-1.9501,.0661l-2.0741-1.1982-3.9102,6.7767,2.0835,1.1995c.6107,.3517,.947,1.022,.9109,1.726-.0097,.1911-.0146,.3832-.0146,.576,0,.1927,.0049,.3848,.0146,.5757,.036,.7008-.298,1.3679-.9054,1.7189l-2.089,1.2069,3.9102,6.7768,2.0799-1.1993c.6103-.3519,1.3608-.3172,1.9505,.0684,.3248,.2121,.6615,.4073,1.0088,.5842,.6252,.3189,1.0272,.9508,1.0272,1.6526v2.3956h7.8265v-2.3956c0-.7018,.402-1.3337,1.0272-1.6526,.3474-.1769,.684-.3721,1.0085-.5842,.59-.3855,1.3405-.4203,1.9508-.0684l2.0799,1.1993,3.9101-6.7768-2.0805-1.2002c-.6086-.3511-.9432-1.0194-.9075-1.7211,.0097-.1918,.0145-.3853,.0145-.5802,0-.1928-.0048-.3849-.0145-.576-.0361-.7041,.2998-1.3746,.9106-1.727l2.0774-1.1985Zm-7.4807,3.5015c0,3.5393-2.8667,6.4058-6.4059,6.4058s-6.4123-2.8665-6.4123-6.4058,2.873-6.4121,6.4123-6.4121,6.4059,2.8728,6.4059,6.4121Z"
                style="fill:#ebebeb;"></path>
            <g>
                <path
                    d="M78.0382,265.5998c-16.8324,0-30.4712,13.6387-30.4712,30.4712,0,16.8252,13.6388,30.4712,30.4712,30.4712,16.8252,0,30.4712-13.646,30.4712-30.4712,0-16.8325-13.646-30.4712-30.4712-30.4712Zm0,44.6979c-7.8609,0-14.2339-6.3657-14.2339-14.2267s6.373-14.2339,14.2339-14.2339,14.234,6.373,14.234,14.2339-6.373,14.2267-14.234,14.2267Z"
                    style="fill:#ebebeb;"></path>
                <polygon
                    points="83.8969 266.863 72.1789 266.863 72.8267 258.5682 83.249 258.5682 83.8969 266.863"
                    style="fill:#ebebeb;"></polygon>
                <polygon
                    points="61.5932 270.811 53.3074 279.097 47.9002 272.7736 55.2698 265.4039 61.5932 270.811"
                    style="fill:#ebebeb;"></polygon>
                <polygon
                    points="48.6139 289.3738 48.6139 301.0918 40.319 300.4439 40.319 290.0217 48.6139 289.3738"
                    style="fill:#ebebeb;"></polygon>
                <polygon
                    points="52.5619 311.6774 60.8478 319.9633 54.5245 325.3704 47.1548 318.0008 52.5619 311.6774"
                    style="fill:#ebebeb;"></polygon>
                <polygon
                    points="71.1247 324.6568 82.8426 324.6568 82.1948 332.9515 71.7725 332.9515 71.1247 324.6568"
                    style="fill:#ebebeb;"></polygon>
                <polygon
                    points="93.4283 320.7087 101.7142 312.4228 107.1213 318.7462 99.7517 326.1159 93.4283 320.7087"
                    style="fill:#ebebeb;"></polygon>
                <polygon
                    points="106.4077 302.146 106.4077 290.428 114.7024 291.0759 114.7024 301.4981 106.4077 302.146"
                    style="fill:#ebebeb;"></polygon>
                <polygon
                    points="102.4596 279.8424 94.1737 271.5565 100.497 266.1493 107.8668 273.519 102.4596 279.8424"
                    style="fill:#ebebeb;"></polygon>
            </g>
            <g>
                <path
                    d="M73.0143,90.9422c0-1.2487,.1663-4.5795,.1663-5.9947,0-6.0792-2.165-8.8279-7.8272-8.9942-2.6653-.1663-4.2468-1.7477-4.2468-3.996,0-2.2497,1.5815-3.8312,4.2468-3.9974,5.6622-.2495,7.8272-2.915,7.8272-9.0775,0-1.415-.1663-4.7457-.1663-5.9947,0-8.078,3.4138-13.241,16.3209-16.0714,2.5808-.5835,4.5795,.9994,4.5795,3.4139,0,1.9988-1.332,3.0813-2.3314,3.4138-8.0765,2.4977-9.2437,5.08-9.2437,10.7421,0,1.6661,.1679,4.4133,.1679,6.1625,0,6.495-3.1644,9.6595-8.6617,11.4087,5.5805,1.831,8.6617,4.9122,8.6617,11.4073,0,1.7492-.1679,4.4964-.1679,6.1624,0,5.6622,1.1672,8.2445,9.2437,10.7422,.9994,.3325,2.3314,1.415,2.3314,3.4138,0,2.4159-1.9987,3.9974-4.5795,3.4154-12.9071-2.8319-16.3209-7.995-16.3209-16.1562Z"
                    style="fill:#ebebeb;"></path>
                <path
                    d="M121.8107,52.8877c0,1.249-.1663,4.5797-.1663,5.9947,0,6.1625,2.2482,8.828,7.9117,9.0775,2.5809,.1662,4.1637,1.7477,4.1637,3.9974,0,2.2483-1.5828,3.8297-4.1637,3.996-5.6635,.1663-7.9117,2.915-7.9117,8.9942,0,1.4152,.1663,4.746,.1663,5.9947,0,8.1612-3.4138,13.3243-16.321,16.1562-2.5807,.582-4.5795-.9995-4.5795-3.4154,0-1.9988,1.332-3.0813,2.4145-3.4138,7.995-2.4977,9.1607-5.08,9.1607-10.7422,0-1.666-.1665-4.4132-.1665-6.1624,0-6.4951,3.1645-9.6595,8.6602-11.4073-5.5803-1.8324-8.6602-4.9137-8.6602-11.4087,0-1.7492,.1665-4.4964,.1665-6.1625,0-5.6621-1.1657-8.2444-9.1607-10.7421-1.0825-.3325-2.4145-1.415-2.4145-3.4138,0-2.4145,1.9988-3.9974,4.5795-3.4139,12.9072,2.8304,16.321,7.9934,16.321,16.0714Z"
                    style="fill:#ebebeb;"></path>
            </g>
            <g>
                <path
                    d="M689.603,261.1421l-12.75972-12.8723c-1.3506-1.3479-1.3506-3.5031,0-4.8471,1.2919-1.2951,3.49972-1.2951,4.8438,0l15.1318,15.3494c.1659,.105,.2709,.2665,.3236,.3764,.1121,0,.1121,.1083,.1121,.1083,.1055,.1055,.1583,.3225,.27042,.4841,0,.0533,.05268,.0533,.05268,.1049,.05332,.1654,.05332,.2709,.105,.433,0,.0561,.1132,.1077,.1132,.2176v.3753c0,.0517,.0522,.2138,.0522,.2704,0,.1615-.0522,.2132-.0522,.322v.3764c0,.0555-.1132,.1088-.1132,.2692-.05168,.0539-.05168,.2154-.105,.3231,0,.0533-.05268,.1621-.1648,.2149-.0528,.161-.0528,.2698-.1583,.4313,0,0-.1121,.0528-.1648,.1094-.05278,.161-.105,.2703-.2709,.3225l-15.1318,15.35c-.6979,.6451-1.5617,.9682-2.4777,.9682-.8639,0-1.6671-.3231-2.3661-.9682-1.3506-1.3485-1.3506-3.4469,0-4.8476l12.75972-12.8712Z"
                    style="fill:#ebebeb;"></path>
                <path
                    d="M661.50948,279.6159c-.3237,.161-.7506,.2132-1.0743,.2132-1.1341,0-2.2605-.6457-2.7491-1.7759l-13.1943-31.4539c-.6456-1.4528,.0539-3.2332,1.51-3.8222,1.56222-.6495,3.2821,.0527,3.92722,1.5577l13.19488,31.4017c.64612,1.5095-.0533,3.2854-1.6144,3.8794Z"
                    style="fill:#ebebeb;"></path>
                <path
                    d="M618.16308,262.5949c0-.1088-.0516-.1088-.0516-.1621-.0533-.1077-.0533-.2692-.1588-.4835,0-.0533-.0522-.0533-.0522-.1088v-.4319c0-.0533-.0599-.2143-.0599-.2665,0-.0566,.0599-.2187,.0599-.2704v-.3753c0-.1099,.0522-.1099,.0522-.1615,.1055-.2182,.1055-.3237,.1588-.4891,0-.0516,.0516-.0516,.0516-.1049,.0605-.1616,.166-.2704,.2703-.4841,0,0,0-.1083,.0534-.1083,.1121-.1099,.2176-.2714,.383-.3764l15.1318-15.3494c1.3446-1.2951,3.5525-1.2951,4.8432,0,1.3518,1.344,1.3518,3.4992,0,4.8471l-12.7585,12.8723,12.7585,12.8712c1.3518,1.4007,1.3518,3.4991,0,4.8476-.6984,.6451-1.5017,.9682-2.4177,.9682-.8633,0-1.7804-.3231-2.4255-.9682l-15.1318-15.35c-.1654-.1088-.2709-.2703-.383-.3791-.0534,0-.0534-.0528-.0534-.0528-.1043-.2137-.2098-.3753-.2703-.4841Z"
                    style="fill:#ebebeb;"></path>
            </g>
        </g>
    </g>
    <g id="freepik--Floor--inject-2">
        <polygon
            points="38.7317 396.2052 122.7987 395.9563 206.86589 395.866 375 395.6946 543.13409 395.8649 627.20118 395.9548 711.26828 396.2052 627.20118 396.4554 543.13409 396.5453 375 396.7156 206.86589 396.5441 122.7987 396.4539 38.7317 396.2052"
            style="fill:#263238;"></polygon>
    </g>
    <g id="freepik--Database--inject-2">
        <g>
            <g>
                <path
                    d="M707.52808,369.233v25.5976c0,6.9907-29.3144,12.6503-65.4636,12.6503-36.1599,0-63.6526-5.6596-63.6526-12.6503v-25.5976h129.1162Z"
                    style="fill:#455a64;"></path>
                <path
                    d="M707.525,368.2623c0-6.9886-29.30832-12.654-65.46192-12.654s-63.6509,5.6654-63.6509,12.654,27.4972,12.654,63.6509,12.654,65.46192-5.6654,65.46192-12.654Z"
                    style="fill:#37474f;"></path>
                <g>
                    <path
                        d="M653.48058,390.9522v3.2176c-21.2197,.7661-40.68158-.6129-61.6342-4.1562v-3.2655c20.9419,3.5912,40.4252,4.9893,61.6342,4.2041Z"
                        style="fill:#37474f;"></path>
                    <path
                        d="M668.36748,390.0424v3.2272c-2.7126,.2202-5.4358,.4214-8.159,.5746v-3.2273c2.71252-.1532,5.4357-.3447,8.159-.5745Z"
                        style="fill:#37474f;"></path>
                    <path
                        d="M681.25718,388.6634v3.2464c-2.6911,.3447-5.393,.6512-8.0841,.9193v-3.2464c2.7018-.2585,5.3823-.5746,8.0841-.9193Z"
                        style="fill:#37474f;"></path>
                    <path
                        d="M694.09368,386.7481v3.2655c-2.6271,.4501-5.2542,.8619-7.892,1.2354v-3.256c2.6378-.3735,5.2649-.7852,7.892-1.2449Z"
                        style="fill:#32A64F;"></path>
                </g>
            </g>
            <g>
                <path
                    d="M707.52808,337.2997v25.5975c0,6.9907-29.3144,12.6503-65.4636,12.6503-36.1599,0-63.6526-5.6596-63.6526-12.6503v-25.5975h129.1162Z"
                    style="fill:#455a64;"></path>
                <path
                    d="M707.525,336.3289c0-6.9886-29.30832-12.654-65.46192-12.654s-63.6509,5.6654-63.6509,12.654,27.4972,12.654,63.6509,12.654,65.46192-5.6654,65.46192-12.654Z"
                    style="fill:#37474f;"></path>
                <g>
                    <path
                        d="M653.48058,359.0188v3.2176c-21.2197,.7661-40.68158-.6129-61.6342-4.1562v-3.2655c20.9419,3.5912,40.4252,4.9893,61.6342,4.2041Z"
                        style="fill:#37474f;"></path>
                    <path
                        d="M668.36748,358.109v3.2272c-2.7126,.2203-5.4358,.4214-8.159,.5746v-3.2272c2.71252-.1532,5.4357-.3448,8.159-.5746Z"
                        style="fill:#37474f;"></path>
                    <path
                        d="M681.25718,356.73v3.2464c-2.6911,.3447-5.393,.6512-8.0841,.9193v-3.2463c2.7018-.2586,5.3823-.5747,8.0841-.9194Z"
                        style="fill:#37474f;"></path>
                    <path
                        d="M694.09368,354.8147v3.2655c-2.6271,.4502-5.2542,.8619-7.892,1.2354v-3.2559c2.6378-.3735,5.2649-.7853,7.892-1.245Z"
                        style="fill:#32A64F;"></path>
                </g>
            </g>
            <g>
                <path
                    d="M707.52808,305.3663v25.5975c0,6.9907-29.3144,12.6503-65.4636,12.6503-36.1599,0-63.6526-5.6596-63.6526-12.6503v-25.5975h129.1162Z"
                    style="fill:#455a64;"></path>
                <path
                    d="M707.525,304.3955c0-6.9886-29.30832-12.654-65.46192-12.654s-63.6509,5.6654-63.6509,12.654,27.4972,12.654,63.6509,12.654,65.46192-5.6654,65.46192-12.654Z"
                    style="fill:#37474f;"></path>
                <g>
                    <path
                        d="M653.48058,327.0854v3.2176c-21.2197,.7661-40.68158-.6129-61.6342-4.1561v-3.2655c20.9419,3.5911,40.4252,4.9892,61.6342,4.204Z"
                        style="fill:#37474f;"></path>
                    <path
                        d="M668.36748,326.1756v3.2272c-2.7126,.2203-5.4358,.4214-8.159,.5746v-3.2272c2.71252-.1532,5.4357-.3448,8.159-.5746Z"
                        style="fill:#37474f;"></path>
                    <path
                        d="M681.25718,324.7966v3.2464c-2.6911,.3447-5.393,.6512-8.0841,.9193v-3.2463c2.7018-.2586,5.3823-.5746,8.0841-.9194Z"
                        style="fill:#37474f;"></path>
                    <path
                        d="M694.09368,322.8814v3.2655c-2.6271,.4501-5.2542,.8619-7.892,1.2353v-3.2559c2.6378-.3735,5.2649-.7853,7.892-1.2449Z"
                        style="fill:#32A64F;"></path>
                </g>
            </g>
        </g>
    </g>
    <g id="freepik--Device--inject-2">
        <g>
            <rect x="122.9425" y="75.7499" width="504.11499" height="337.2158"
                style="fill:#dbdbdb;"></rect>
            <rect x="126.6061" y="79.8632" width="496.78779" height="328.9893"
                style="fill:#263238;"></rect>
            <g>
                <rect x="148.604" y="101.0105" width="452.792" height="286.6947"
                    style="fill:#fff;"></rect>
                <g>
                    <rect x="148.604" y="101.0105" width="452.792" height="7.4469"
                        style="fill:#455a64;"></rect>
                    <g>
                        <path
                            d="M155.6422,104.7339c0,.7809-.6329,1.4139-1.4137,1.4139s-1.4139-.633-1.4139-1.4139c0-.7808,.6331-1.4138,1.4139-1.4138s1.4137,.633,1.4137,1.4138Z"
                            style="fill:#c7c7c7;"></path>
                        <path
                            d="M161.4154,104.7339c0,.7809-.6331,1.4139-1.4139,1.4139s-1.4138-.633-1.4138-1.4139c0-.7808,.633-1.4138,1.4138-1.4138s1.4139,.633,1.4139,1.4138Z"
                            style="fill:#fff;"></path>
                        <path
                            d="M167.1885,104.7339c0,.7809-.633,1.4139-1.4139,1.4139-.7807,0-1.4137-.633-1.4137-1.4139,0-.7808,.633-1.4138,1.4137-1.4138,.7809,0,1.4139,.633,1.4139,1.4138Z"
                            style="fill:#32A64F;"></path>
                    </g>
                </g>
                <g>
                    <path
                        d="M374.93809,296.3978c-28.69509,0-52.0402-23.3447-52.0402-52.0398s23.34511-52.0402,52.0402-52.0402,52.0402,23.3451,52.0402,52.0402-23.3451,52.0398-52.0402,52.0398Zm0-100.2031c-26.5572,0-48.1633,21.6058-48.1633,48.1633s21.6061,48.1629,48.1633,48.1629,48.1633-21.6061,48.1633-48.1629-21.6061-48.1633-48.1633-48.1633Z"
                        style="fill:#32A64F;"></path>
                    <path
                        d="M374.93809,276.7218c-17.8455,0-32.3642-14.5187-32.3642-32.3638s14.5187-32.3646,32.3642-32.3646,32.3642,14.5187,32.3642,32.3646-14.5187,32.3638-32.3642,32.3638Zm0-60.8515c-15.7079,0-28.4873,12.7794-28.4873,28.4877,0,15.7075,12.7794,28.4869,28.4873,28.4869s28.4873-12.7794,28.4873-28.4869c0-15.7083-12.77939-28.4877-28.4873-28.4877Z"
                        style="fill:#32A64F;"></path>
                    <g>
                        <circle cx="374.93819" cy="160.9447" r="12.6387"
                            style="fill:#32A64F;"></circle>
                        <path
                            d="M387.57689,327.7709c0,6.9708-5.668,12.6388-12.6387,12.6388-6.9629,0-12.6387-5.668-12.6387-12.6388,0-6.9629,5.6758-12.6386,12.6387-12.6386,6.9707,0,12.6387,5.6757,12.6387,12.6386Z"
                            style="fill:#32A64F;"></path>
                        <rect x="372.99959" y="172.0704" width="3.8769" height="41.7714"
                            style="fill:#32A64F;"></rect>
                        <rect x="372.99959" y="274.8742" width="3.8769" height="41.7714"
                            style="fill:#32A64F;"></rect>
                    </g>
                    <g>
                        <circle cx="478.90146" cy="244.35782" r="12.63862"
                            transform="translate(195.79749 701.42401) rotate(-85.25897)"
                            style="fill:#32A64F;"></circle>
                        <circle cx="270.97477" cy="244.35782" r="12.63862"
                            transform="translate(5.74129 494.9357) rotate(-85.41581)"
                            style="fill:#32A64F;"></circle>
                        <rect x="426.00439" y="242.4193" width="41.7713" height="3.8769"
                            style="fill:#32A64F;"></rect>
                        <rect x="282.10019" y="242.4193" width="41.7713" height="3.8769"
                            style="fill:#32A64F;"></rect>
                    </g>
                    <g>
                        <path
                            d="M456.94179,215.9226c-6.969,0-12.6389-5.67-12.6389-12.6393s5.6699-12.6389,12.6389-12.6389,12.6389,5.6699,12.6389,12.6389-5.6699,12.6393-12.6389,12.6393Zm0-21.4013c-4.8314,0-8.762,3.9306-8.762,8.762,0,4.8317,3.9306,8.7624,8.762,8.7624s8.762-3.9307,8.762-8.7624c0-4.8314-3.9306-8.762-8.762-8.762Z"
                            style="fill:#32A64F;"></path>
                        <polygon
                            points="400.64069 227.9584 397.89969 225.2173 421.77179 201.3448 446.24129 201.3448 446.24129 205.2217 423.37779 205.2217 400.64069 227.9584"
                            style="fill:#32A64F;"></polygon>
                    </g>
                    <g>
                        <path
                            d="M293.06159,215.9226c-6.969,0-12.6389-5.67-12.6389-12.6393s5.6699-12.6389,12.6389-12.6389,12.6389,5.6699,12.6389,12.6389-5.6699,12.6393-12.6389,12.6393Zm0-21.4013c-4.8314,0-8.762,3.9306-8.762,8.762,0,4.8317,3.9306,8.7624,8.762,8.7624s8.762-3.9307,8.762-8.7624c0-4.8314-3.93059-8.762-8.762-8.762Z"
                            style="fill:#32A64F;"></path>
                        <polygon
                            points="349.36269 227.9584 326.62559 205.2217 303.76209 205.2217 303.76209 201.3448 328.23169 201.3448 352.10379 225.2173 349.36269 227.9584"
                            style="fill:#32A64F;"></polygon>
                    </g>
                    <g>
                        <path
                            d="M293.06159,298.0713c-6.969,0-12.6389-5.67-12.6389-12.6386,0-6.9693,5.6699-12.6393,12.6389-12.6393s12.6389,5.67,12.6389,12.6393c0,6.9686-5.6699,12.6386-12.6389,12.6386Zm0-21.401c-4.8314,0-8.762,3.9307-8.762,8.7624,0,4.831,3.9306,8.7617,8.762,8.7617s8.762-3.9307,8.762-8.7617c0-4.8317-3.93059-8.7624-8.762-8.7624Z"
                            style="fill:#32A64F;"></path>
                        <polygon
                            points="328.23169 287.3712 303.76209 287.3712 303.76209 283.4943 326.62559 283.4943 349.36269 260.7576 352.10379 263.4987 328.23169 287.3712"
                            style="fill:#32A64F;"></polygon>
                    </g>
                    <g>
                        <path
                            d="M456.94179,298.0713c-6.969,0-12.6389-5.67-12.6389-12.6386,0-6.9693,5.6699-12.6393,12.6389-12.6393s12.6389,5.67,12.6389,12.6393c0,6.9686-5.6699,12.6386-12.6389,12.6386Zm0-21.401c-4.8314,0-8.762,3.9307-8.762,8.7624,0,4.831,3.9306,8.7617,8.762,8.7617s8.762-3.9307,8.762-8.7617c0-4.8317-3.9306-8.7624-8.762-8.7624Z"
                            style="fill:#32A64F;"></path>
                        <polygon
                            points="446.24129 287.3712 421.77179 287.3712 397.89969 263.4987 400.64069 260.7576 423.37779 283.4943 446.24129 283.4943 446.24129 287.3712"
                            style="fill:#32A64F;"></polygon>
                    </g>
                    <g>
                        <path
                            d="M351.83949,183.055c0,3.0812-2.5054,5.5867-5.5866,5.5867-3.0778,0-5.5867-2.5055-5.5867-5.5867,0-3.0778,2.5089-5.5867,5.5867-5.5867,3.0812,0,5.5866,2.5089,5.5866,5.5867Z"
                            style="fill:#32A64F;"></path>
                        <path
                            d="M333.34429,165.8695c0,3.0813-2.5054,5.5867-5.5866,5.5867-3.0778,0-5.58669-2.5054-5.58669-5.5867,0-3.0778,2.50889-5.5866,5.58669-5.5866,3.0812,0,5.5866,2.5088,5.5866,5.5866Z"
                            style="fill:#32A64F;"></path>
                        <path
                            d="M409.21019,183.055c0,3.0812-2.5054,5.5867-5.5866,5.5867-3.0778,0-5.5867-2.5055-5.5867-5.5867,0-3.0778,2.5089-5.5867,5.5867-5.5867,3.0812,0,5.5866,2.5089,5.5866,5.5867Z"
                            style="fill:#32A64F;"></path>
                        <path
                            d="M427.70539,165.8695c0,3.0813-2.50539,5.5867-5.5866,5.5867-3.07779,0-5.5867-2.5054-5.5867-5.5867,0-3.0778,2.50891-5.5866,5.5867-5.5866,3.08121,0,5.5866,2.5088,5.5866,5.5866Z"
                            style="fill:#32A64F;"></path>
                    </g>
                    <g>
                        <path
                            d="M333.34429,322.8461c0,3.0813-2.5054,5.5867-5.5866,5.5867-3.0778,0-5.58669-2.5054-5.58669-5.5867,0-3.0778,2.50889-5.5866,5.58669-5.5866,3.0812,0,5.5866,2.5088,5.5866,5.5866Z"
                            style="fill:#32A64F;"></path>
                        <path
                            d="M351.83949,305.6607c0,3.0812-2.5054,5.5866-5.5866,5.5866-3.0778,0-5.5867-2.5054-5.5867-5.5866,0-3.0778,2.5089-5.5867,5.5867-5.5867,3.0812,0,5.5866,2.5089,5.5866,5.5867Z"
                            style="fill:#32A64F;"></path>
                        <path
                            d="M427.70539,322.8461c0,3.0813-2.50539,5.5867-5.5866,5.5867-3.07779,0-5.5867-2.5054-5.5867-5.5867,0-3.0778,2.50891-5.5866,5.5867-5.5866,3.08121,0,5.5866,2.5088,5.5866,5.5866Z"
                            style="fill:#32A64F;"></path>
                        <path
                            d="M409.21019,305.6607c0,3.0812-2.5054,5.5866-5.5866,5.5866-3.0778,0-5.5867-2.5054-5.5867-5.5866,0-3.0778,2.5089-5.5867,5.5867-5.5867,3.0812,0,5.5866,2.5089,5.5866,5.5867Z"
                            style="fill:#32A64F;"></path>
                    </g>
                    <g>
                        <path
                            d="M365.123,249.8525h-7.215l-1.45561,3.859c-.2672,.6529-.891,1.0397-1.5438,1.0397-.208,0-.3869-.029-.56459-.0894-.86081-.3265-1.27661-1.2767-.97921-2.1375l6.56221-17.4911c.26709-.6529,.92-1.0687,1.574-1.0397,.68309-.029,1.30569,.3868,1.57289,1.0397l6.5634,17.4911c.2962,.8608-.1185,1.811-.9805,2.1375-.1487,.0604-.3554,.0894-.5634,.0894-.654,0-1.2778-.3868-1.5148-1.0397l-1.45559-3.859Zm-1.21741-3.2665l-2.40459-6.3857-2.40581,6.3857h4.8104Z"
                            style="fill:#32A64F;"></path>
                        <path
                            d="M380.66409,246.6754h-3.6522v6.4437c0,.8898-.7423,1.6321-1.6635,1.6321-.8898,0-1.6333-.7423-1.6333-1.6321v-17.5201c0-.9212,.7435-1.6345,1.6333-1.6345h5.3157c3.5338,0,6.3845,2.8507,6.3845,6.3857,0,3.4721-2.8507,6.3252-6.3845,6.3252Zm-3.6522-3.298h3.6522c1.7228,0,3.0587-1.3661,3.08891-3.0272-.03021-1.724-1.36611-3.0901-3.08891-3.0901h-3.6522v6.1173Z"
                            style="fill:#32A64F;"></path>
                        <path
                            d="M391.24489,235.599c0-.9212,.7133-1.6345,1.6333-1.6345,.891,0,1.6635,.7133,1.6635,1.6345v17.5201c0,.9188-.7725,1.6321-1.6635,1.6321-.92,0-1.6333-.7133-1.6333-1.6321v-17.5201Z"
                            style="fill:#32A64F;"></path>
                    </g>
                </g>
            </g>
            <g>
                <rect x="57.2725" y="438.2586" width="635.45498" height="23.1446"
                    style="fill:#c7c7c7;"></rect>
                <polygon
                    points="57.2725 438.2586 122.9331 412.971 627.06648 412.971 692.72748 438.2586 57.2725 438.2586"
                    style="fill:#ebebeb;"></polygon>
                <polygon
                    points="128.7967 429.2895 171.1686 412.971 578.83119 412.971 621.20318 429.2895 128.7967 429.2895"
                    style="fill:#263238;"></polygon>
            </g>
        </g>
    </g>
    <g id="freepik--Tab--inject-2">
        <g>
            <rect x="412.52329" y="45.7849" width="253.53609" height="168.2608"
                style="fill:#263238;"></rect>
            <g>
                <rect x="412.52329" y="45.7849" width="253.53609" height="7.4467"
                    style="fill:#455a64;"></rect>
                <g>
                    <path
                        d="M419.56159,49.5083c0,.7808-.633,1.4137-1.4137,1.4137-.78089,0-1.414-.6329-1.414-1.4137s.63311-1.4138,1.414-1.4138c.7807,0,1.4137,.633,1.4137,1.4138Z"
                        style="fill:#c7c7c7;"></path>
                    <path
                        d="M425.33479,49.5083c0,.7808-.6331,1.4137-1.4139,1.4137-.78089,0-1.4138-.6329-1.4138-1.4137s.63291-1.4138,1.4138-1.4138c.7808,0,1.4139,.633,1.4139,1.4138Z"
                        style="fill:#fff;"></path>
                    <path
                        d="M431.10779,49.5083c0,.7808-.633,1.4137-1.41379,1.4137s-1.41381-.6329-1.41381-1.4137,.633-1.4138,1.41381-1.4138,1.41379,.633,1.41379,1.4138Z"
                        style="fill:#32A64F;"></path>
                </g>
            </g>
            <g>
                <g>
                    <rect x="433.68919" y="86.6361" width="7.3949" height="1.4473"
                        style="fill:#ebebeb;"></rect>
                    <rect x="449.80959" y="86.6361" width="120.7865" height="1.4473"
                        style="fill:#ebebeb;"></rect>
                    <rect x="575.13969" y="86.6361" width="14.0461" height="1.4473"
                        style="fill:#32A64F;"></rect>
                    <rect x="597.61828" y="120.8306" width="37.4291" height="1.4471"
                        style="fill:#ebebeb;"></rect>
                    <rect x="592.23929" y="86.6361" width="44.7475" height="1.4473"
                        style="fill:#a6a6a6;"></rect>
                    <rect x="433.68919" y="93.475" width="7.3946" height="1.4473"
                        style="fill:#ebebeb;"></rect>
                    <rect x="457.01889" y="93.475" width="55.667" height="1.4473"
                        style="fill:#a6a6a6;"></rect>
                    <rect x="573.22539" y="120.8306" width="21.0568" height="1.4471"
                        style="fill:#a6a6a6;"></rect>
                    <rect x="449.80959" y="113.9917" width="53.1705" height="1.4472"
                        style="fill:#a6a6a6;"></rect>
                    <rect x="457.01889" y="100.3138" width="37.3009" height="1.4473"
                        style="fill:#32A64F;"></rect>
                    <rect x="584.53259" y="107.1528" width="54.0978" height="1.4472"
                        style="fill:#a6a6a6;"></rect>
                    <rect x="543.06439" y="140.7178" width="27.5317" height="1.4472"
                        style="fill:#a6a6a6;"></rect>
                    <rect x="498.45859" y="100.3138" width="95.5286" height="1.4473"
                        style="fill:#a6a6a6;"></rect>
                    <rect x="449.80959" y="120.8306" width="118.6023" height="1.4471"
                        style="fill:#32A64F;"></rect>
                    <rect x="516.18069" y="93.475" width="71.4388" height="1.4473"
                        style="fill:#ebebeb;"></rect>
                    <rect x="599.91178" y="100.3138" width="23.9848" height="1.4473"
                        style="fill:#ebebeb;"></rect>
                    <rect x="433.68919" y="100.3138" width="7.3946" height="1.4473"
                        style="fill:#ebebeb;"></rect>
                    <rect x="433.68919" y="107.1528" width="7.3949" height="1.4472"
                        style="fill:#a6a6a6;"></rect>
                    <rect x="449.80959" y="107.1528" width="43.70341" height="1.4472"
                        style="fill:#ebebeb;"></rect>
                    <rect x="457.01889" y="127.6693" width="43.7033" height="1.4473"
                        style="fill:#ebebeb;"></rect>
                    <rect x="574.47149" y="134.5082" width="61.013" height="1.4473"
                        style="fill:#32A64F;"></rect>
                    <rect x="496.53949" y="134.5082" width="74.111" height="1.4473"
                        style="fill:#ebebeb;"></rect>
                    <rect x="457.01889" y="134.5082" width="32.8504" height="1.4473"
                        style="fill:#a6a6a6;"></rect>
                    <rect x="505.98889" y="113.9917" width="83.1969" height="1.4472"
                        style="fill:#ebebeb;"></rect>
                    <rect x="592.23929" y="113.9917" width="44.7475" height="1.4472"
                        style="fill:#32A64F;"></rect>
                    <rect x="497.95539" y="107.1528" width="83.14" height="1.4472"
                        style="fill:#32A64F;"></rect>
                    <rect x="433.68919" y="113.9917" width="7.3949" height="1.4472"
                        style="fill:#ebebeb;"></rect>
                    <rect x="433.68919" y="120.8306" width="7.3949" height="1.4471"
                        style="fill:#ebebeb;"></rect>
                    <rect x="433.68919" y="127.6693" width="7.3946" height="1.4473"
                        style="fill:#a6a6a6;"></rect>
                    <rect x="433.68919" y="134.5082" width="7.3946" height="1.4473"
                        style="fill:#ebebeb;"></rect>
                    <rect x="433.68919" y="140.7178" width="7.3949" height="1.4472"
                        style="fill:#ebebeb;"></rect>
                    <rect x="449.80959" y="140.7178" width="86.7079" height="1.4472"
                        style="fill:#ebebeb;"></rect>
                    <rect x="433.68919" y="147.5566" width="7.3946" height="1.4472"
                        style="fill:#ebebeb;"></rect>
                    <rect x="457.01889" y="147.5566" width="55.667" height="1.4472"
                        style="fill:#a6a6a6;"></rect>
                    <rect x="449.80959" y="168.0732" width="53.1705" height="1.4472"
                        style="fill:#a6a6a6;"></rect>
                    <rect x="457.01889" y="154.3954" width="37.3009" height="1.4473"
                        style="fill:#32A64F;"></rect>
                    <rect x="542.44089" y="181.7509" width="27.3009" height="1.4473"
                        style="fill:#32A64F;"></rect>
                    <rect x="457.01889" y="195.4286" width="37.3009" height="1.4473"
                        style="fill:#32A64F;"></rect>
                    <rect x="498.45859" y="154.3954" width="95.5286" height="1.4473"
                        style="fill:#a6a6a6;"></rect>
                    <rect x="449.80959" y="174.9121" width="118.6023" height="1.4472"
                        style="fill:#32A64F;"></rect>
                    <rect x="516.18069" y="147.5566" width="71.4388" height="1.4472"
                        style="fill:#ebebeb;"></rect>
                    <rect x="587.94179" y="161.2343" width="23.94" height="1.4473"
                        style="fill:#ebebeb;"></rect>
                    <rect x="433.68919" y="154.3954" width="7.3946" height="1.4473"
                        style="fill:#ebebeb;"></rect>
                    <rect x="433.68919" y="161.2343" width="7.3949" height="1.4473"
                        style="fill:#a6a6a6;"></rect>
                    <rect x="449.80959" y="161.2343" width="43.70341" height="1.4473"
                        style="fill:#ebebeb;"></rect>
                    <rect x="505.98889" y="168.0732" width="83.1969" height="1.4472"
                        style="fill:#ebebeb;"></rect>
                    <rect x="497.95539" y="161.2343" width="83.14" height="1.4473"
                        style="fill:#32A64F;"></rect>
                    <rect x="433.68919" y="168.0732" width="7.3949" height="1.4472"
                        style="fill:#ebebeb;"></rect>
                    <rect x="433.68919" y="181.7509" width="7.3949" height="1.4473"
                        style="fill:#ebebeb;"></rect>
                    <rect x="449.80959" y="181.7509" width="86.7079" height="1.4473"
                        style="fill:#ebebeb;"></rect>
                    <rect x="433.68919" y="188.5897" width="7.3946" height="1.4473"
                        style="fill:#ebebeb;"></rect>
                    <rect x="457.01889" y="188.5897" width="55.667" height="1.4473"
                        style="fill:#a6a6a6;"></rect>
                    <rect x="498.45859" y="195.4286" width="95.5286" height="1.4473"
                        style="fill:#a6a6a6;"></rect>
                    <rect x="433.68919" y="195.4286" width="7.3946" height="1.4473"
                        style="fill:#ebebeb;"></rect>
                </g>
                <g>
                    <path
                        d="M437.27589,73.6277c.1999,.2073,.1999,.5178,0,.7174-.1035,.0955-.2223,.1433-.3502,.1433-.1355,0-.2633-.0478-.3666-.1433l-2.2393-2.2715c-.0245-.0078-.0323-.024-.0401-.0478-.0078-.0083-.0244-.0161-.0244-.0161-.0155-.024-.0155-.0401-.0234-.0639-.0166-.0078-.0244-.0239-.0244-.0318-.0079-.016-.0079-.0398-.01549-.0478,0-.0237-.01681-.0316-.01681-.0399v-.0556c0-.0162-.0077-.0238-.0077-.0477,0-.0084,.0077-.0324,.0077-.04v-.0556c0-.0162,.01681-.0239,.01681-.0322,.00759-.0239,.00759-.0396,.01549-.0641,0-.0075,.0078-.0075,.0078-.0154,.0166-.024,.0245-.0561,.04-.0717,0,0,0-.0161,.0166-.0161,.0078-.0162,.0234-.0401,.0479-.0556l2.2393-2.2715c.19891-.1916,.5256-.1916,.7168,0,.1999,.1989,.1999,.5178,0,.7173l-1.8882,1.9049,1.8882,1.9047Z"
                        style="fill:#32A64F;"></path>
                    <path
                        d="M439.30619,73.8827l1.9526-4.6469c.0955-.2228,.35-.3266,.58121-.2306,.21549,.0872,.319,.3507,.22339,.5657l-1.9525,4.6547c-.0724,.1673-.239,.2628-.40689,.2628-.04791,0-.11111-.0077-.15891-.0316-.231-.0879-.3345-.3507-.2389-.5741Z"
                        style="fill:#32A64F;"></path>
                    <path
                        d="M445.91959,72.0097s0,.0078-.0078,.0078c-.0166,.016-.0323,.0399-.0567,.0561l-2.2393,2.2715c-.0954,.0955-.2312,.1433-.3589,.1433-.1356,0-.2545-.0478-.3578-.1433-.2-.1996-.2-.5101,0-.7174l1.8881-1.9047-1.8881-1.9049c-.2-.1995-.2-.5184,0-.7173,.191-.1916,.5178-.1916,.7167,0l2.2393,2.2715c.0244,.0155,.0401,.0394,.0567,.0556,.0078,0,.0078,.0161,.0078,.0161,.0155,.0316,.0311,.0477,.0401,.0717,0,.0079,.0076,.0079,.0076,.0154,.0078,.0245,.0078,.0402,.0235,.0724,0,.0077,.0077,.0077,.0077,.0239v.0556c0,.0076,.0089,.0316,.0089,.04,0,.0077-.0089,.0315-.0089,.0394v.0639c0,.0083-.0077,.0083-.0077,.0162-.0157,.0317-.0157,.0555-.0235,.0715,0,.0079-.0076,.0079-.0076,.024-.009,.0161-.0246,.04-.0401,.0717Z"
                        style="fill:#32A64F;"></path>
                </g>
            </g>
        </g>
    </g>
    <g id="freepik--Lines--inject-2">
        <g>
            <g>
                <polygon
                    points="649.50977 292.05176 648.50977 292.05176 648.50977 255.25098 627.23438 255.25098 627.23438 254.25098 649.50977 254.25098 649.50977 292.05176"
                    style="fill:#32A64F;"></polygon>
                <path
                    d="M651.26593,291.93851c0,1.24573-1.01013,2.25589-2.25586,2.25589s-2.25586-1.01016-2.25586-2.25589,1.01019-2.25583,2.25586-2.25583,2.25586,1.01016,2.25586,2.25583Z"
                    style="fill:#32A64F;"></path>
                <circle cx="627.34753" cy="254.7512" r="2.25586" style="fill:#32A64F;"></circle>
            </g>
            <g>
                <polygon
                    points="359.59521 75.86963 358.59521 75.86963 358.59521 58.89014 412.80176 58.89014 412.80176 59.89014 359.59521 59.89014 359.59521 75.86963"
                    style="fill:#32A64F;"></polygon>
                <circle cx="359.09518" cy="75.75663" r="2.25587"
                    transform="translate(151.68515 378.52634) rotate(-67.49995)"
                    style="fill:#32A64F;"></circle>
                <path
                    d="M412.689,61.64606c1.24573,0,2.25589-1.01016,2.25589-2.25586s-1.01016-2.25586-2.25589-2.25586-2.25583,1.01016-2.25583,2.25586,1.01016,2.25586,2.25583,2.25586Z"
                    style="fill:#32A64F;"></path>
            </g>
        </g>
    </g>
    <g id="freepik--Cloud--inject-2">
        <g>
            <g>
                <path
                    d="M104.659,93.2442c0,8.7428,6.7642,15.9028,15.3508,16.5379v.0462h93.9265c10.7675,0,19.492-8.7247,19.492-19.4921,0-10.1512-7.7582-18.4984-17.67-19.4094-.56129-17.6422-15.0377-31.7783-32.818-31.7783-14.1544,0-26.2197,8.9546-30.8304,21.5075-2.6228-1.3249-5.5771-2.0613-8.7151-2.0613-10.3628,0-18.8388,8.0803-19.4554,18.2864-.8743-.1472-1.7762-.2208-2.6966-.2208-9.1569,0-16.5838,7.4269-16.5838,16.5839Z"
                    style="fill:#32A64F;"></path>
                <path
                    d="M104.659,93.2442c0,8.7428,6.7642,15.9028,15.3508,16.5379v.0462h93.9265c10.7675,0,19.492-8.7247,19.492-19.4921,0-10.1512-7.7582-18.4984-17.67-19.4094-.56129-17.6422-15.0377-31.7783-32.818-31.7783-14.1544,0-26.2197,8.9546-30.8304,21.5075-2.6228-1.3249-5.5771-2.0613-8.7151-2.0613-10.3628,0-18.8388,8.0803-19.4554,18.2864-.8743-.1472-1.7762-.2208-2.6966-.2208-9.1569,0-16.5838,7.4269-16.5838,16.5839Z"
                    style="opacity:.1;"></path>
            </g>
            <path
                d="M95.2935,93.2442c0,8.7428,6.7642,15.9028,15.3508,16.5379v.0462h93.9267c10.76739,0,19.49179-8.7247,19.49179-19.4921,0-10.1512-7.7581-18.4984-17.6699-19.4094-.5613-17.6422-15.0377-31.7783-32.8181-31.7783-14.1543,0-26.2196,8.9546-30.8304,21.5075-2.6228-1.3249-5.5769-2.0613-8.715-2.0613-10.3628,0-18.8388,8.0803-19.4554,18.2864-.8743-.1472-1.7762-.2208-2.6966-.2208-9.1569,0-16.5839,7.4269-16.5839,16.5839Z"
                style="fill:#32A64F;"></path>
            <g>
                <rect x="148.5934" y="90.7964" width="22.1696" height="19.0319"
                    style="fill:#fff;"></rect>
                <polygon points="140.9844 90.7964 178.372 90.7964 159.6782 72.1474 140.9844 90.7964"
                    style="fill:#fff;"></polygon>
            </g>
        </g>
    </g>
    <g id="freepik--Speech_Bubble--inject-2">
        <g>
            <polygon
                points="134.2949 190.999 134.2949 234.3752 140.3834 234.3752 140.3834 244.8968 150.9051 234.3752 208.646 234.3752 208.646 190.999 134.2949 190.999"
                style="fill:#fff;"></polygon>
            <g>
                <path
                    d="M134.29489,190.99899l.15569,21.75255c.07361,7.23303,.11624,14.42795,.1243,21.62357l-.27988-.27989,6.0883-.0163,.29558-.00079,.00079,.29718,.02817,10.52139-.55379-.22939,10.49339-10.54962c.12174-.1306,.09709-.10616,.25776-.10676,16.99476-.04134,40.98131-.1463,57.74057-.11685l-.48081,.48103,.11687-43.37601,.36407,.36407c-18.5339-.01824-55.81935-.22556-74.35101-.36418h0Zm0,0c18.5253-.13614,55.82458-.34244,74.3511-.36409l.36319-.00125,.00099,.36545,.11685,43.37601,.0013,.47864-.48242,.00249c-16.67241,.06098-40.8173-.10721-57.74075-.11668l.25746-.10669-10.54973,10.49329-.55603,.55305,.00211-.7825,.02815-10.52139,.29619,.29617-6.0883-.0163-.2804-.00075c-.04066-12.73075,.24039-30.76703,.28029-43.65544h0Z"
                    style="fill:#263238;"></path>
                <path
                    d="M139.80469,246.28223l.03076-11.3623-5.01025-.01318v.07227l-.07275-.07275-.98682-.00293-.00098-.24805c-.00098-.24414-.00146-.49072-.00195-.73877l-.06982-.06982h.06982c-.01562-7.30713,.06787-16.24414,.14844-24.89648,.06006-6.48242,.11719-12.60498,.13379-17.95117l-.00195-.25195,.25195,.00195c18.69238-.1377,56.01855-.34229,74.35059-.36426l.61328-.00146,.00146,.61523,.11914,44.10352-.73193,.00439c-10.05957,.03662-22.79443-.01025-35.10986-.05469-7.96826-.0293-15.72217-.05762-22.37939-.06201l-10.19971,10.14502,.00049,.13574-.09668-.04004-1.05762,1.05176Zm.50391-1.28125v.0752l.05273-.05273-.05273-.02246Zm.64746-.78516l.00049,.21533,9.69873-9.64648v-.04492c0-.16748,.04688-.18701,.41162-.33789l.34424-.14258-.50537,.00146-.04932-.00049-.02246,.02393-9.87793,9.93164Zm-.62061-9.29443l-.02441,9.23389,.14453-.14502-.02441-9.08887h-.0957Zm.5957,.00146l.02295,8.58594,9.51611-9.56738c.12549-.13428,.19189-.19043,.37744-.18115,4.72021-.01074,9.90967-.02686,15.33154-.04346,13.92285-.04346,29.66846-.09277,41.73779-.07373l.11328-42.03027c-18.48535-.02246-54.93799-.22363-73.4834-.36182l.15381,21.49854c.07275,7.14111,.11426,14.23486,.12354,21.09424l5.01416-.01318v-.05615l.05615,.05615,1.0332-.00342,.00342,1.0376,.05811,.05811h-.05811Zm10.72949-.43262c6.54395,.00537,14.10938,.03271,21.87891,.06152,12.01855,.04346,24.43652,.0874,34.375,.05713l.00098-.46582c-12.07031-.02148-27.81299,.02979-41.73486,.07373-5.04199,.01562-9.8833,.03027-14.28711,.0415l-.23291,.23193Zm57.21533-.47266l-.59033,.59033,.35938-.00146,.23242-.00146-.00146-.5874Zm-74.05127,.38916l5.01221,.01318v-.08936l-5.01221,.01318v.06299Zm5.56934-.07764l.03564,.03516v-.03516h-.03564Zm-6.10547-10.52979c-.02148,3.54492-.03271,6.94287-.02588,10.0459h.06152c-.00439-3.30127-.0166-6.65723-.03564-10.0459Zm74.12842,9.84424c.07666,0,.15283,.00049,.22949,.00049l.22852,.00049-.11328-42.03125h-.23145l-.11328,42.03027Zm.104-42.75879l.23975,.23975-.00098-.24023-.11328,.00049h-.12549Zm-32.22363,.11523c12.01807,.05859,23.61133,.10303,31.73389,.11279l.00098-.22705c-8.11523,.01074-19.70947,.05615-31.73486,.11426Z"
                    style="fill:#263238;"></path>
            </g>
            <g>
                <path
                    d="M161.4866,219.6336c.7098,.7361,.7098,1.8388,0,2.5474-.3672,.339-.7894,.5088-1.2433,.5088-.4814,0-.9353-.1698-1.302-.5088l-7.9516-8.0663c-.0872-.0274-.1147-.0849-.1424-.1695-.0277-.0297-.0866-.0574-.0866-.0574-.0554-.0849-.0554-.1421-.0832-.2267-.0589-.0277-.0866-.0849-.0866-.1129-.028-.0566-.028-.1415-.0551-.1698,0-.0843-.0595-.1123-.0595-.1415v-.1978c0-.0572-.0274-.0843-.0274-.1692,0-.0297,.0274-.1149,.0274-.1421v-.1972c0-.0577,.0595-.0849,.0595-.1143,.0271-.0852,.0271-.1406,.0551-.2276,0-.0271,.0277-.0271,.0277-.0551,.0589-.0849,.0867-.199,.1421-.2544,0,0,0-.0569,.0589-.0569,.0277-.0577,.0829-.1426,.1701-.1978l7.9516-8.0659c.7063-.6806,1.8665-.6806,2.5453,0,.7098,.7062,.7098,1.8387,0,2.547l-6.705,6.7643,6.705,6.7637Z"
                    style="fill:#32A64F;"></path>
                <path
                    d="M168.6961,220.5392l6.9338-16.5013c.339-.7909,1.2428-1.1599,2.0637-.8186,.7652,.3095,1.1328,1.2451,.7935,2.0085l-6.9335,16.5287c-.2567,.594-.8487,.9333-1.4447,.9333-.17,0-.3943-.0275-.5644-.1121-.8204-.3121-1.188-1.2453-.8484-2.0385Z"
                    style="fill:#32A64F;"></path>
                <path
                    d="M192.1805,213.8878s0,.0277-.028,.0277c-.0589,.0572-.1144,.142-.2013,.1992l-7.9516,8.0663c-.339,.339-.821,.5088-1.2746,.5088-.4813,0-.9035-.1698-1.2705-.5088-.7103-.7086-.7103-1.8113,0-2.5474l6.7045-6.7637-6.7045-6.7643c-.7103-.7083-.7103-1.8408,0-2.547,.6783-.6806,1.8385-.6806,2.5451,0l7.9516,8.0659c.0869,.0552,.1424,.1401,.2013,.1978,.028,0,.028,.0569,.028,.0569,.0548,.1123,.1103,.1695,.1421,.2544,0,.028,.0271,.028,.0271,.0551,.028,.087,.028,.1424,.0834,.257,0,.0272,.0275,.0272,.0275,.0849v.1972c0,.0272,.0315,.1124,.0315,.1421,0,.0274-.0315,.112-.0315,.14v.227c0,.0292-.0275,.0292-.0275,.0572-.0554,.1126-.0554,.1975-.0834,.2541,0,.028-.0271,.028-.0271,.0852-.0318,.0571-.0873,.142-.1421,.2544Z"
                    style="fill:#32A64F;"></path>
            </g>
        </g>
    </g>
</svg>
