<!DOCTYPE svg PUBLIC "-//W3C//DTD SVG 1.1//EN" "http://www.w3.org/Graphics/SVG/1.1/DTD/svg11.dtd">
<!-- Uploaded to: SVG Repo, www.svgrepo.com, Transformed by: SVG Repo Mixer Tools -->
<svg fill="#FFFFFF" height="800px" width="800px" version="1.1" id="Layer_1" xmlns="http://www.w3.org/2000/svg" xmlns:xlink="http://www.w3.org/1999/xlink" viewBox="0 0 512 512" xml:space="preserve" stroke="#FFFFFF">
<g id="SVGRepo_bgCarrier" stroke-width="0"/>
<g id="SVGRepo_tracerCarrier" stroke-linecap="round" stroke-linejoin="round"/>
<g id="SVGRepo_iconCarrier"> <g> <g> <path d="M480.512,144.896H94.194v-50.56c9.098,7.794,20.901,12.519,33.792,12.519h209.238c5.033,0,9.114-4.081,9.114-9.114 s-4.081-9.114-9.114-9.114H142.927c1.611-13.484,13.111-23.974,27.022-23.974h233.088v23.974h-37.31 c-5.033,0-9.114,4.081-9.114,9.114s4.081,9.114,9.114,9.114h83.732v13.394c0,5.033,4.081,9.114,9.114,9.114 s9.114-4.081,9.114-9.114V97.74c0-5.033-4.081-9.114-9.114-9.114h-37.308V55.537c0-5.033-4.081-9.114-9.114-9.114h-37.31V11.927 c0-5.033-4.081-9.114-9.114-9.114H127.984c-13.891,0-26.957,5.415-36.788,15.246c-9.823,9.823-15.232,22.883-15.232,36.774v90.062 H52.879c-18.69,0-34.23-14.806-34.641-33.005c-0.21-9.326,3.299-18.087,9.883-24.671c6.388-6.388,14.877-9.906,23.9-9.906 c5.033,0,9.114-4.081,9.114-9.114s-4.081-9.114-9.114-9.114c-13.892,0-26.957,5.415-36.788,15.246 C5.458,84.104,0.1,96.993,0.017,110.764C0.013,110.878,0,110.99,0,111.104v346.062c0,13.892,5.409,26.952,15.232,36.774 c9.831,9.831,22.896,15.246,36.788,15.246h55.527c5.033,0,9.114-4.081,9.114-9.114s-4.081-9.114-9.114-9.114H52.02 c-9.023,0-17.51-3.518-23.9-9.908c-6.379-6.378-9.892-14.861-9.892-23.884V150.244c9.323,8.005,21.471,12.881,34.651,12.881 h427.633c7.312,0,13.259,5.949,13.259,13.259v301.315c0,7.311-5.948,13.259-13.259,13.259h-341.37 c-5.033,0-9.114,4.081-9.114,9.114s4.081,9.114,9.114,9.114h341.37c17.363,0,31.488-14.126,31.488-31.488V176.384 C512,159.021,497.874,144.896,480.512,144.896z M104.086,30.949c6.388-6.388,14.877-9.908,23.9-9.908h228.628v25.381H169.948 c-23.912,0-43.556,18.565-45.309,42.036c-17.068-1.685-30.446-16.121-30.446-33.625C94.193,45.811,97.706,37.328,104.086,30.949z"/> </g> </g> <g> <g> <path d="M448.021,310.891c-5.033,0-9.114,4.081-9.114,9.114c0,21.348-17.368,38.716-38.716,38.716s-38.716-17.368-38.716-38.716 s17.368-38.716,38.716-38.716c11.982,0,23.099,5.417,30.5,14.865c3.106,3.964,8.835,4.658,12.795,1.554 c3.963-3.104,4.658-8.832,1.554-12.795c-10.879-13.888-27.226-21.852-44.849-21.852c-31.399,0-56.944,25.545-56.944,56.944 c0,31.399,25.545,56.944,56.944,56.944s56.944-25.545,56.944-56.944C457.135,314.972,453.055,310.891,448.021,310.891z"/> </g> </g> </g>
</svg>